<!--?xml version="1.0" encoding="utf-8"?-->
<!-- Generator: Adobe Illustrator 16.0.0, SVG Export Plug-In . SVG Version: 6.00 Build 0)  -->
<!-- <!DOCTYPE svg PUBLIC "-//W3C//DTD SVG 1.1//EN" "http://www.w3.org/Graphics/SVG/1.1/DTD/svg11.dtd"> -->
<svg version="1.1" id="svg2" xmlns:dc="http://purl.org/dc/elements/1.1/" xmlns:cc="http://web.resource.org/cc/" xmlns:rdf="http://www.w3.org/1999/02/22-rdf-syntax-ns#" xmlns:svg="http://www.w3.org/2000/svg" xmlns:sodipodi="http://sodipodi.sourceforge.net/DTD/sodipodi-0.dtd" xmlns:inkscape="http://www.inkscape.org/namespaces/inkscape" sodipodi:docname="Volkswagen_Group.svg" inkscape:version="0.45.1" sodipodi:version="0.32" inkscape:output_extension="org.inkscape.output.svg.inkscape" sodipodi:docbase="C:\Documents and Settings\Home User\Desktop" xmlns="http://www.w3.org/2000/svg" xmlns:xlink="http://www.w3.org/1999/xlink" x="0px" y="0px" width="720px" height="340px" viewBox="-307.555 -158.85 720 340" style="">
<!-- <sodipodi:namedview  inkscape:cy="19.638892" inkscape:cx="51.794591" inkscape:zoom="8.0954431" borderopacity="1.0" bordercolor="#666666" pagecolor="none" id="base" width="104.89px" height="22.3px" inkscape:window-y="-4" inkscape:window-x="-4" inkscape:current-layer="svg2" inkscape:pageshadow="2" inkscape:pageopacity="0.0" inkscape:window-width="1024" inkscape:window-height="712" gridtolerance="10.0" guidetolerance="10.0" objecttolerance="10.0">
	</sodipodi:namedview> -->
<g id="layer1" transform="matrix(9.6793484e-2,0,0,9.6793484e-2,29.235591,-36.665483)">
	<g id="g3676" transform="translate(35.444763,35.437134)">
		<path id="path2396" fill="none" stroke-width="10px" stroke="#918d8d" d="M-903.073,128.416c-87.024,0-158.612,64.46-158.612,171.663
			c0,100.508,48.523,163.515,147.564,163.515c87.998,0,158.738-64.929,158.738-172.131
			C-755.383,180.391-816.528,128.416-903.073,128.416z M-32.332,128.416c-77.883,0-123.466,39.898-123.466,97.608
			c0,105.775,136.971,78.398,136.971,140.437c0,29.813-25.46,42.753-57.181,42.753c-23.583,0-49.522-5.267-67.805-11.532
			l-3.844,58.134c20.219,5.296,43.223,7.778,66.291,7.778c79.82,0,128.436-44.766,128.436-105.855
			c0-100.478-137.516-79.821-137.516-138c0-23.079,19.25-39.378,55.299-39.378c19.709,0,39.867,3.33,58.119,8.626l3.39-54.759
			C7.143,130.853-14.045,128.416-32.332,128.416z M1066.4,128.885c-112.515,0-181.797,72.647-181.797,174.583
			c0,99.041,61.11,159.566,164,159.566c38.924,0,78.888-7.158,111.092-20.158V288.093h-62.543v112.963
			c-12.47,3.844-25.97,5.721-41.345,5.721c-65.862,0-103.395-40.377-103.395-109.12c0-72.602,46.219-112.984,110.154-112.984
			c30.287,0,60.021,6.205,85.989,16.314l9.655-58.134C1130.306,134.667,1098.646,128.885,1066.4,128.885z M-1389.085,133.667
			l112.969,324.584h71.618l113.453-324.584h-63.931l-63.96,186.115c-9.601,27.382-14.867,45.664-19.68,67.774h-1.028
			c-5.781-23.563-12.985-45.679-19.221-63.93l-62.931-189.959H-1389.085z M-678.982,133.667v324.584h167.844v-54.85h-105.307
			V133.667H-678.982z M-443.85,133.667v324.584h62.447V302.424l104.827,155.828h81.757l-124.046-167.829l118.81-156.756h-76.037
			l-105.311,147.201V133.667H-443.85z M96.104,133.667l82.701,324.584h72.107l47.056-180.289
			c5.792-21.626,10.15-43.312,12.571-65.913h0.484c3.359,23.099,7.174,46.632,12.471,67.325l47.156,178.876h76.405l82.701-324.584
			h-62.452L423.054,315c-4.822,19.22-9.12,39.832-12.47,62.432h-0.586c-2.865-22.6-8.111-45.679-12.914-63.476l-50.072-180.289
			H281.2L231.683,315c-5.751,20.673-9.656,42.788-13.016,64.399h-0.484c-2.875-22.6-6.688-45.225-11.985-66.382L161.94,133.667
			H96.104z M658.677,133.667L545.214,458.252h62.906l22.609-66.382h123.562l22.609,66.382h68.354L729.352,133.667H658.677z
			 M1263.009,133.667v324.584h176.47V404.9h-113.927v-88.038h108.217v-50.9h-108.217v-79.881h113.927v-52.414H1263.009z
			 M1531.351,133.667v324.584h60.575v-115.89c0-38.924-0.968-93.713-2.905-121.595c9.625,21.147,24.517,46.647,38.439,71.169
			l96.19,166.315h76.405V133.667h-60.565V234.65c0,39.908,0.969,101.477,3.391,134.156c-12.026-24.522-28.331-53.382-42.738-78.383
			l-91.428-156.756H1531.351z M-908.764,184.673c55.758,0,86.515,39.454,86.515,111.561c0,77.899-45.255,110.542-87.574,110.542
			c-58.18,0-85.026-44.69-85.026-113.448C-994.85,220.243-953.499,184.673-908.764,184.673z M691.305,205.301h1.029
			c4.318,18.271,9.141,34.147,15.376,51.944l30.268,85.117H646.65l29.278-82.681C682.648,240.931,687.451,222.129,691.305,205.301z" class="fgSFwBKg_0"></path>
		
	</g>
</g>
<style data-made-with="vivus-instant">.fgSFwBKg_0{stroke-dasharray:16135 16137;stroke-dashoffset:16136;animation:fgSFwBKg_draw 7000ms ease-in-out 0ms forwards;}@keyframes fgSFwBKg_draw{100%{stroke-dashoffset:0;}}@keyframes fgSFwBKg_fade{0%{stroke-opacity:1;}96.42857142857143%{stroke-opacity:1;}100%{stroke-opacity:0;}}</style></svg>
