<?xml version="1.0" standalone="no"?>
<!DOCTYPE svg PUBLIC "-//W3C//DTD SVG 20010904//EN"
 "http://www.w3.org/TR/2001/REC-SVG-20010904/DTD/svg10.dtd">
<svg version="1.0" xmlns="http://www.w3.org/2000/svg"
 width="1280.000000pt" height="1280.000000pt" viewBox="0 0 1280.000000 1280.000000"
 preserveAspectRatio="xMidYMid meet">
<metadata>
Created by potrace 1.14, written by Peter Selinger 2001-2017
</metadata>
<g transform="translate(0.000000,1280.000000) scale(0.100000,-0.100000)"
fill="#000000" stroke="none">
<path d="M1025 12458 c-22 -5 -78 -21 -125 -35 -47 -14 -86 -24 -88 -24 -5 3
-138 -72 -202 -115 -197 -130 -367 -381 -415 -612 -9 -42 -19 -86 -22 -97 -12
-45 -16 -1247 -17 -5640 0 -2536 3 -4637 7 -4670 12 -85 32 -167 47 -196 8
-13 13 -26 12 -29 -3 -10 11 -47 44 -115 88 -183 282 -378 459 -464 112 -54
172 -75 260 -91 33 -5 71 -13 85 -16 14 -3 189 -8 390 -11 612 -8 9930 -8
10000 0 98 12 195 36 274 68 90 37 156 72 156 82 0 5 5 5 10 2 6 -3 13 1 16 9
3 9 11 16 16 16 33 0 220 181 283 274 28 42 95 173 113 221 22 60 47 165 56
240 15 120 26 10183 12 10295 -4 30 -16 84 -26 120 -11 36 -20 68 -20 72 -4
29 -57 142 -103 221 -102 172 -285 332 -472 414 -60 26 -173 62 -248 79 -46
11 -10461 13 -10502 2z m10380 -452 c17 -3 46 -8 65 -11 19 -3 44 -9 55 -12
11 -4 25 -7 30 -8 18 -1 128 -57 154 -79 135 -110 200 -220 231 -391 7 -42 10
-799 10 -2520 -2 -4126 -8 -7648 -14 -7685 -24 -135 -82 -258 -153 -323 -12
-11 -20 -24 -17 -29 3 -4 -1 -8 -8 -8 -7 0 -25 -11 -40 -25 -61 -56 -191 -107
-313 -123 -69 -8 -10040 -7 -10179 2 -154 9 -247 34 -330 86 -26 17 -49 30
-53 30 -3 0 -34 30 -68 66 -61 63 -130 179 -140 234 -3 14 -10 50 -17 80 -10
44 -13 1063 -12 5017 1 2730 4 5014 7 5075 10 180 40 286 110 383 28 39 83
100 109 120 38 29 135 84 158 90 3 0 16 5 29 9 97 33 108 33 5261 30 2802 -1
5109 -5 5125 -8z"/>
<path d="M1357 11923 c-1 0 -47 -3 -102 -6 -203 -11 -310 -53 -408 -160 -90
-97 -121 -184 -133 -377 -7 -124 -9 -9975 -1 -10038 20 -163 93 -285 219 -366
85 -54 156 -72 313 -81 144 -9 10084 -10 10145 -2 118 16 209 53 278 113 46
39 99 103 104 125 2 7 8 18 14 24 10 9 29 70 50 160 9 38 20 10023 11 10115
-5 54 -16 119 -24 140 -4 8 -7 17 -7 20 -5 22 -30 70 -38 70 -5 0 -7 4 -3 9 3
5 -9 25 -27 44 -18 19 -35 38 -38 43 -11 22 -90 79 -140 101 -131 59 226 55
-4995 60 -2635 2 -4886 5 -5003 6 -118 1 -214 1 -215 0z"/>
</g>
</svg>
